<svg aria-hidden="true" style="position: absolute; width: 0; height: 0; overflow: hidden;" version="1.1" xmlns="http://www.w3.org/2000/svg" xmlns:xlink="http://www.w3.org/1999/xlink">
<defs>
<symbol id="icon-burger" viewBox="0 0 31 32">
<path stroke-linejoin="miter" stroke-linecap="round" stroke-miterlimit="4" stroke-width="1.4884" d="M3.907 9.488h23.814M3.907 16.186h23.814M3.907 22.884h23.814"></path>
</symbol>
<symbol id="icon-search" viewBox="0 0 31 32">
<path stroke-linejoin="round" stroke-linecap="round" stroke-miterlimit="4" stroke-width="2.7826" d="M29.217 29.913l-2.783-2.783M14.609 28.522c1.736 0 3.454-0.342 5.058-1.006s3.061-1.638 4.288-2.865c1.227-1.227 2.201-2.684 2.865-4.288s1.006-3.322 1.006-5.058c0-1.736-0.342-3.454-1.006-5.058s-1.638-3.061-2.865-4.288c-1.227-1.227-2.684-2.201-4.288-2.865s-3.322-1.006-5.058-1.006c-3.505 0-6.867 1.393-9.346 3.871s-3.871 5.841-3.871 9.346c0 3.506 1.393 6.867 3.871 9.346s5.841 3.871 9.346 3.871v0z"></path>
</symbol>
<symbol id="icon-close" viewBox="0 0 32 32">
<path fill="none" stroke="#fafafa" style="stroke: var(--color1, #fafafa)" stroke-linejoin="round" stroke-linecap="round" stroke-miterlimit="4" stroke-width="2.6667" d="M24 8l-16 16"></path>
<path fill="none" stroke="#fafafa" style="stroke: var(--color1, #fafafa)" stroke-linejoin="round" stroke-linecap="round" stroke-miterlimit="4" stroke-width="2.6667" d="M8 8l16 16"></path>
</symbol>
<symbol id="icon-down" viewBox="0 0 48 32">
<path d="M23.998 28.667c-0.531 0.002-1.040-0.209-1.413-0.587l-21.333-21.333c-0.734-0.788-0.713-2.016 0.049-2.778s1.99-0.783 2.778-0.049l19.92 19.92 19.92-19.92c0.788-0.734 2.016-0.713 2.778 0.049s0.783 1.99 0.049 2.778l-21.333 21.333c-0.373 0.378-0.883 0.589-1.413 0.587z"></path>
</symbol>
<symbol id="icon-check" viewBox="0 0 57 32">
<path fill="#a93b59" style="fill: var(--color1, #a93b59)" d="M55.819 1.708l-0.875-0.875c-0.625-0.625-1.5-0.625-2.125 0l-24.375 24.375-24.5-24.375c-0.625-0.625-1.5-0.625-2.125 0l-0.875 0.875c-0.625 0.625-0.625 1.5 0 2.125l26.375 26.375c0.625 0.625 1.5 0.625 2.125 0l26.375-26.375c0.625-0.625 0.625-1.5 0-2.125z"></path>
</symbol>
<symbol id="icon-new" viewBox="0 0 34 32">
<path fill="#fff" style="fill: var(--color1, #fff)" d="M4.286 6.143h-4.286c0 8.304 6.696 15 15 15v9.643c0 0.602 0.469 1.071 1.071 1.071h2.143c0.536 0 1.071-0.469 1.071-1.071v-9.643c0-8.237-6.763-15-15-15zM30 1.857c-5.692 0-10.58 3.147-13.125 7.768 1.875 2.009 3.214 4.487 3.951 7.165 7.567-0.737 13.46-7.165 13.46-14.933h-4.286z"></path>
</symbol>
<symbol id="icon-water" viewBox="0 0 22 32">
<path fill="#fff" style="fill: var(--color1, #fff)" d="M12.012 3.098c-0.469-1.699-2.93-1.816-3.457 0-2.695 9.199-8.555 11.719-8.555 18.223 0 5.801 4.57 10.43 10.313 10.43 5.684 0 10.313-4.629 10.313-10.43 0-6.504-5.859-8.965-8.613-18.223zM10.313 28c-3.633 0-6.563-2.93-6.563-6.562 0-0.469 0.41-0.938 0.938-0.938 0.469 0 0.938 0.469 0.938 0.938 0 2.637 2.051 4.687 4.688 4.687 0.469 0 0.938 0.469 0.938 0.937 0 0.527-0.469 0.938-0.938 0.938z"></path>
</symbol>
<symbol id="icon-name" viewBox="0 0 32 32">
<path fill="#6f6567" style="fill: var(--color1, #6f6567)" d="M16 14.519c1.356 0 2.682-0.348 3.81-0.999s2.007-1.577 2.525-2.659c0.519-1.083 0.655-2.274 0.39-3.424s-0.918-2.205-1.877-3.034c-0.959-0.829-2.181-1.393-3.511-1.622s-2.709-0.111-3.962 0.337c-1.253 0.449-2.324 1.208-3.077 2.183s-1.156 2.12-1.156 3.292c0 1.572 0.722 3.079 2.008 4.19s3.030 1.736 4.849 1.736z"></path>
<path fill="#6f6567" style="fill: var(--color1, #6f6567)" d="M26.286 29.333c0.455 0 0.891-0.156 1.212-0.434s0.502-0.655 0.502-1.048c0-2.75-1.264-5.388-3.515-7.333s-5.303-3.037-8.485-3.037c-3.183 0-6.235 1.093-8.485 3.037s-3.515 4.583-3.515 7.333c0 0.393 0.181 0.77 0.502 1.048s0.758 0.434 1.212 0.434h20.571z"></path>
</symbol>
<symbol id="icon-phone" viewBox="0 0 32 32">
<path fill="#827679" style="fill: var(--color2, #827679)" d="M24.591 32c-6.519-0.009-12.769-2.607-17.379-7.226s-7.203-10.881-7.212-17.414c0-1.952 0.774-3.824 2.151-5.204s3.246-2.156 5.194-2.156c0.413-0.003 0.824 0.034 1.23 0.112 0.392 0.058 0.777 0.155 1.15 0.288 0.262 0.092 0.496 0.251 0.678 0.462s0.306 0.465 0.36 0.738l2.188 9.6c0.059 0.261 0.052 0.532-0.021 0.789s-0.208 0.492-0.395 0.683c-0.208 0.224-0.224 0.24-2.188 1.264 1.573 3.457 4.332 6.234 7.776 7.824 1.038-1.984 1.054-2 1.277-2.208 0.191-0.187 0.425-0.323 0.682-0.395s0.527-0.080 0.787-0.021l9.581 2.192c0.264 0.061 0.508 0.189 0.709 0.371s0.353 0.412 0.441 0.669c0.135 0.38 0.236 0.771 0.303 1.168 0.064 0.402 0.096 0.809 0.096 1.216-0.029 1.944-0.825 3.797-2.213 5.155s-3.256 2.11-5.196 2.093z"></path>
</symbol>
<symbol id="icon-ok" viewBox="0 0 43 32">
<path d="M15.898 32c-0.348-0.001-0.692-0.074-1.011-0.214s-0.606-0.344-0.842-0.599l-12.343-13.13c-0.461-0.492-0.709-1.146-0.687-1.82s0.31-1.312 0.801-1.773 1.147-0.709 1.821-0.687c0.674 0.021 1.312 0.31 1.773 0.801l10.464 11.149 21.359-23.365c0.217-0.27 0.486-0.493 0.792-0.655s0.642-0.26 0.987-0.287c0.345-0.027 0.692 0.016 1.020 0.128s0.629 0.289 0.886 0.521 0.463 0.515 0.606 0.83c0.144 0.315 0.221 0.656 0.228 1.002s-0.057 0.69-0.188 1.010c-0.131 0.321-0.326 0.611-0.573 0.853l-23.213 25.397c-0.235 0.26-0.52 0.469-0.839 0.613s-0.664 0.221-1.015 0.225h-0.025z"></path>
</symbol>
<symbol id="icon-close" viewBox="0 0 32 32">
<path stroke-linejoin="miter" stroke-linecap="butt" stroke-miterlimit="4" stroke-width="2.4615" d="M1.231 16c0-8.157 6.612-14.769 14.769-14.769v0c8.157 0 14.769 6.612 14.769 14.769v0c0 8.157-6.612 14.769-14.769 14.769v0c-8.157 0-14.769-6.612-14.769-14.769v0z"></path>
<path stroke-linejoin="round" stroke-linecap="round" stroke-miterlimit="4" stroke-width="2.4615" d="M6.154 6.154l19.692 19.692"></path>
<path stroke-linejoin="round" stroke-linecap="round" stroke-miterlimit="4" stroke-width="2.4615" d="M6.154 25.846l19.692-19.692"></path>
</symbol>
<symbol id="icon-mc" viewBox="0 0 32 32">
<path fill="none" stroke="#a93b59" style="stroke: var(--color1, #a93b59)" stroke-linejoin="miter" stroke-linecap="butt" stroke-miterlimit="4" stroke-width="2.4615" d="M1.231 16c0-8.157 6.612-14.769 14.769-14.769v0c8.157 0 14.769 6.612 14.769 14.769v0c0 8.157-6.612 14.769-14.769 14.769v0c-8.157 0-14.769-6.612-14.769-14.769v0z"></path>
<path fill="none" stroke="#a93b59" style="stroke: var(--color1, #a93b59)" stroke-linejoin="round" stroke-linecap="round" stroke-miterlimit="4" stroke-width="2.4615" d="M6.154 6.154l19.692 19.692"></path>
<path fill="none" stroke="#a93b59" style="stroke: var(--color1, #a93b59)" stroke-linejoin="round" stroke-linecap="round" stroke-miterlimit="4" stroke-width="2.4615" d="M6.154 25.846l19.692-19.692"></path>
</symbol>
<symbol id="icon-left_arr" viewBox="0 0 24 32">
<path fill="#b02e51" style="fill: var(--color1, #b02e51)" d="M10.58 21.214c-0.144 0.001-0.286-0.033-0.416-0.099s-0.244-0.161-0.335-0.28l-4.649-6.135c-0.142-0.183-0.219-0.412-0.219-0.649s0.077-0.466 0.219-0.649l4.813-6.135c0.163-0.209 0.398-0.34 0.653-0.365s0.508 0.059 0.705 0.232c0.197 0.174 0.32 0.423 0.344 0.693s-0.055 0.54-0.219 0.748l-4.303 5.48 4.158 5.48c0.118 0.15 0.193 0.333 0.216 0.527s-0.007 0.391-0.086 0.567c-0.079 0.176-0.204 0.325-0.36 0.428s-0.337 0.157-0.521 0.155z"></path>
</symbol>
<symbol id="icon-right_arr" viewBox="0 0 24 32">
<path fill="#b02e51" style="fill: var(--color1, #b02e51)" d="M13.841 10.786c0.144-0.001 0.286 0.033 0.416 0.099s0.244 0.161 0.335 0.28l4.649 6.135c0.142 0.183 0.219 0.412 0.219 0.649s-0.077 0.466-0.219 0.649l-4.813 6.135c-0.163 0.209-0.398 0.34-0.653 0.365s-0.508-0.059-0.705-0.232c-0.197-0.174-0.32-0.423-0.344-0.693s0.055-0.54 0.219-0.748l4.303-5.48-4.158-5.48c-0.118-0.15-0.192-0.333-0.215-0.527s0.007-0.391 0.086-0.567c0.079-0.176 0.204-0.325 0.36-0.428s0.337-0.157 0.521-0.155z"></path>
</symbol>
<symbol id="icon-fb" viewBox="0 0 31 32">
<path fill="#a93b59" style="fill: var(--color1, #a93b59)" d="M21.76 5.12c0-0.17-0.067-0.333-0.187-0.453s-0.283-0.187-0.453-0.187h-3.2c-1.611-0.080-3.189 0.481-4.388 1.56s-1.922 2.589-2.012 4.2v3.456h-3.2c-0.17 0-0.333 0.067-0.453 0.187s-0.187 0.283-0.187 0.453v3.328c0 0.17 0.067 0.332 0.187 0.452s0.283 0.188 0.453 0.188h3.2v8.576c0 0.17 0.067 0.332 0.187 0.452s0.283 0.188 0.453 0.188h3.84c0.17 0 0.333-0.067 0.453-0.188s0.187-0.283 0.187-0.452v-8.576h3.354c0.142 0.002 0.281-0.044 0.395-0.129s0.195-0.207 0.232-0.344l0.922-3.328c0.025-0.095 0.029-0.194 0.010-0.29s-0.060-0.187-0.119-0.264c-0.059-0.078-0.136-0.141-0.223-0.185s-0.184-0.067-0.282-0.067h-4.288v-3.456c0.032-0.317 0.181-0.61 0.417-0.823s0.544-0.33 0.863-0.329h3.2c0.17 0 0.333-0.067 0.453-0.187s0.187-0.283 0.187-0.453v-3.328z"></path>
</symbol>
<symbol id="icon-insta" viewBox="0 0 31 32">
<path fill="#a93b59" style="fill: var(--color1, #a93b59)" d="M15.36 0.64c-4.173 0-4.694 0.019-6.332 0.092-1.636 0.077-2.749 0.334-3.729 0.714-1.010 0.392-1.868 0.918-2.721 1.772s-1.381 1.71-1.772 2.721c-0.38 0.979-0.639 2.093-0.714 3.729-0.077 1.638-0.092 2.159-0.092 6.332s0.019 4.694 0.092 6.332c0.077 1.635 0.334 2.749 0.714 3.729 0.392 1.009 0.918 1.868 1.772 2.721 0.854 0.852 1.71 1.381 2.721 1.772 0.98 0.379 2.094 0.639 3.729 0.714 1.638 0.077 2.159 0.092 6.332 0.092s4.694-0.019 6.332-0.092c1.635-0.077 2.749-0.335 3.729-0.714 1.009-0.392 1.868-0.919 2.721-1.772 0.852-0.854 1.381-1.709 1.772-2.721 0.379-0.979 0.639-2.094 0.714-3.729 0.077-1.638 0.092-2.159 0.092-6.332s-0.019-4.694-0.092-6.332c-0.077-1.635-0.335-2.751-0.714-3.729-0.392-1.010-0.919-1.868-1.772-2.721-0.854-0.854-1.709-1.381-2.721-1.772-0.979-0.38-2.094-0.639-3.729-0.714-1.638-0.077-2.159-0.092-6.332-0.092zM15.36 3.405c4.1 0 4.589 0.020 6.208 0.091 1.498 0.070 2.31 0.319 2.851 0.531 0.719 0.278 1.229 0.611 1.769 1.147 0.536 0.538 0.869 1.048 1.147 1.768 0.21 0.54 0.461 1.353 0.529 2.851 0.073 1.62 0.090 2.107 0.090 6.208s-0.019 4.589-0.095 6.208c-0.078 1.498-0.328 2.31-0.539 2.851-0.287 0.719-0.613 1.229-1.151 1.769-0.536 0.536-1.055 0.869-1.766 1.147-0.538 0.21-1.363 0.461-2.861 0.529-1.631 0.073-2.111 0.090-6.22 0.090-4.11 0-4.59-0.019-6.22-0.095-1.499-0.078-2.324-0.328-2.862-0.539-0.728-0.287-1.229-0.613-1.765-1.151-0.539-0.536-0.883-1.055-1.152-1.766-0.211-0.538-0.46-1.363-0.538-2.861-0.058-1.613-0.078-2.111-0.078-6.2 0-4.091 0.020-4.59 0.078-6.222 0.078-1.498 0.326-2.322 0.538-2.86 0.269-0.73 0.613-1.229 1.152-1.768 0.536-0.536 1.037-0.882 1.765-1.149 0.538-0.212 1.345-0.462 2.843-0.539 1.632-0.058 2.112-0.077 6.22-0.077l0.058 0.038zM15.36 8.113c-4.358 0-7.887 3.533-7.887 7.887 0 4.358 3.533 7.887 7.887 7.887 4.358 0 7.887-3.533 7.887-7.887 0-4.358-3.533-7.887-7.887-7.887zM15.36 21.12c-2.829 0-5.12-2.291-5.12-5.12s2.291-5.12 5.12-5.12c2.829 0 5.12 2.291 5.12 5.12s-2.291 5.12-5.12 5.12zM25.403 7.802c0 1.018-0.827 1.843-1.843 1.843-1.018 0-1.843-0.827-1.843-1.843s0.827-1.842 1.843-1.842c1.015-0.001 1.843 0.826 1.843 1.842z"></path>
</symbol>
<symbol id="icon-phone-1" viewBox="0 0 32 32">
<path d="M6.020 1.182c0.025 0 0.050 0 0.076 0.001 0.046 0.001 0.092 0.004 0.136 0.007 0.060 0.004 0.12 0.008 0.18 0.015 0.048 0.006 0.096 0.013 0.144 0.021 0.057 0.009 0.113 0.018 0.171 0.030 0.045 0.009 0.090 0.021 0.149 0.037l0.020 0.005c0.047 0.012 0.093 0.024 0.14 0.038 0.043 0.013 0.086 0.030 0.129 0.045l0.027 0.010 0.044 0.016c0.034 0.012 0.069 0.025 0.103 0.039 0.043 0.018 0.085 0.039 0.127 0.059l0.033 0.016 0.058 0.027c0.025 0.012 0.051 0.023 0.076 0.037 0.044 0.024 0.086 0.050 0.129 0.076l0.035 0.021 0.067 0.040c0.016 0.010 0.034 0.019 0.050 0.030 0.054 0.036 0.105 0.076 0.157 0.116l0.019 0.014c0.024 0.018 0.047 0.035 0.071 0.053l0.021 0.015c0.090 0.074 0.175 0.151 0.253 0.228l2.866 2.866c0.078 0.078 0.154 0.163 0.225 0.249l0.019 0.025c0.017 0.024 0.034 0.047 0.052 0.071l0.016 0.021c0.039 0.051 0.078 0.101 0.114 0.155 0.011 0.017 0.021 0.034 0.031 0.052l0.039 0.066 0.022 0.036c0.026 0.042 0.052 0.084 0.076 0.128 0.013 0.025 0.025 0.051 0.037 0.076l0.027 0.057 0.016 0.034c0.020 0.042 0.041 0.084 0.059 0.126 0.014 0.033 0.026 0.067 0.038 0.101l0.016 0.045 0.010 0.027c0.016 0.043 0.032 0.086 0.045 0.13s0.025 0.091 0.037 0.136l0.008 0.033c0.012 0.046 0.024 0.093 0.034 0.14 0.012 0.056 0.021 0.112 0.030 0.169 0.008 0.048 0.015 0.097 0.021 0.146 0.007 0.060 0.011 0.119 0.015 0.179 0.003 0.046 0.006 0.091 0.007 0.137 0.001 0.063 0.001 0.126-0.001 0.188-0.001 0.043-0.003 0.085-0.006 0.128-0.004 0.066-0.011 0.131-0.018 0.195-0.005 0.039-0.011 0.078-0.017 0.117-0.011 0.068-0.023 0.136-0.038 0.203-0.007 0.032-0.015 0.063-0.026 0.104-0.018 0.070-0.037 0.14-0.058 0.208-0.006 0.018-0.012 0.035-0.019 0.053l-0.013 0.037c-0.025 0.072-0.051 0.143-0.081 0.213l-0.013 0.028-0.022 0.048c-0.034 0.073-0.068 0.146-0.111 0.224l-0.031 0.052c-0.051 0.089-0.091 0.154-0.128 0.21-0.012 0.016-0.024 0.032-0.035 0.047-0.065 0.093-0.12 0.166-0.174 0.23-0.080 0.096-0.143 0.166-0.204 0.227l-1.939 1.939c-0.659 0.659-0.659 1.731 0 2.39l8.381 8.381c0.319 0.319 0.744 0.495 1.195 0.495s0.876-0.176 1.195-0.495l1.939-1.939c0.060-0.060 0.13-0.123 0.227-0.204 0.064-0.053 0.137-0.109 0.23-0.174 0.015-0.011 0.030-0.021 0.047-0.034 0.056-0.038 0.122-0.078 0.212-0.13l0.055-0.033c0.072-0.039 0.145-0.074 0.219-0.108l0.047-0.022 0.026-0.012c0.071-0.030 0.142-0.057 0.215-0.082l0.037-0.013c0.017-0.006 0.034-0.012 0.051-0.018 0.070-0.022 0.139-0.041 0.221-0.062 0.031-0.008 0.061-0.016 0.092-0.022 0.068-0.015 0.136-0.027 0.205-0.038 0.038-0.006 0.077-0.012 0.114-0.017 0.066-0.008 0.131-0.014 0.198-0.019 0.042-0.003 0.084-0.005 0.125-0.006 0.038-0.001 0.076-0.002 0.114-0.002 0.025 0 0.050 0 0.075 0.001 0.046 0.001 0.091 0.004 0.136 0.007 0.060 0.004 0.12 0.008 0.18 0.015 0.048 0.006 0.096 0.013 0.144 0.021 0.057 0.009 0.113 0.018 0.171 0.030 0.045 0.009 0.090 0.021 0.149 0.037l0.020 0.005c0.047 0.012 0.093 0.024 0.14 0.038 0.043 0.013 0.086 0.029 0.129 0.045l0.027 0.010 0.044 0.016c0.034 0.012 0.069 0.025 0.104 0.039 0.043 0.018 0.085 0.039 0.127 0.059l0.091 0.043c0.025 0.012 0.051 0.023 0.076 0.037 0.044 0.024 0.086 0.050 0.129 0.076l0.035 0.021 0.067 0.040c0.017 0.010 0.034 0.019 0.050 0.030 0.054 0.036 0.105 0.076 0.157 0.116l0.019 0.014c0.024 0.018 0.047 0.035 0.071 0.053l0.021 0.015c0.090 0.074 0.175 0.151 0.253 0.228l2.866 2.866c0.078 0.078 0.154 0.163 0.225 0.249l0.019 0.025c0.017 0.024 0.034 0.047 0.052 0.071l0.016 0.021c0.039 0.051 0.079 0.102 0.114 0.155 0.011 0.017 0.021 0.034 0.031 0.052l0.039 0.066 0.022 0.036c0.026 0.042 0.052 0.084 0.076 0.128 0.013 0.025 0.025 0.051 0.037 0.076l0.027 0.057 0.017 0.034c0.020 0.042 0.040 0.083 0.058 0.126 0.014 0.033 0.026 0.067 0.038 0.101l0.016 0.045 0.010 0.027c0.015 0.043 0.032 0.085 0.045 0.129 0.014 0.045 0.025 0.090 0.037 0.136l0.008 0.033c0.012 0.047 0.024 0.093 0.034 0.141 0.012 0.056 0.021 0.112 0.029 0.168 0.008 0.048 0.015 0.097 0.021 0.146 0.007 0.060 0.011 0.119 0.015 0.179 0.003 0.045 0.006 0.091 0.007 0.137 0.001 0.063 0.001 0.126-0.001 0.188-0.001 0.043-0.003 0.085-0.006 0.128-0.004 0.066-0.011 0.131-0.018 0.195-0.005 0.039-0.011 0.078-0.017 0.117-0.011 0.068-0.023 0.136-0.038 0.203-0.007 0.032-0.015 0.063-0.026 0.104-0.018 0.070-0.037 0.14-0.058 0.208-0.006 0.018-0.012 0.036-0.019 0.053l-0.013 0.037c-0.025 0.072-0.051 0.143-0.081 0.212l-0.013 0.028-0.022 0.048c-0.034 0.073-0.068 0.146-0.111 0.224l-0.031 0.052c-0.051 0.089-0.091 0.154-0.128 0.21-0.012 0.016-0.024 0.032-0.035 0.047-0.065 0.093-0.12 0.166-0.174 0.229-0.080 0.096-0.143 0.166-0.204 0.227l-0.009 0.009-0.009 0.009c-1.404 1.475-3.523 2.287-5.967 2.287-4.56 0-9.803-2.753-14.771-7.759-5.048-5.008-7.802-10.293-7.753-14.881 0.025-2.393 0.837-4.471 2.287-5.85l0.009-0.009 0.009-0.009c0.060-0.060 0.13-0.123 0.227-0.204 0.064-0.053 0.137-0.109 0.23-0.174 0.015-0.011 0.030-0.021 0.047-0.034 0.056-0.038 0.122-0.078 0.213-0.13l0.056-0.033c0.072-0.039 0.145-0.074 0.219-0.108l0.047-0.022 0.026-0.012c0.071-0.030 0.143-0.057 0.215-0.082l0.037-0.013c0.017-0.006 0.034-0.012 0.051-0.018 0.070-0.022 0.139-0.041 0.221-0.062 0.031-0.008 0.061-0.016 0.092-0.022 0.068-0.015 0.136-0.027 0.205-0.038 0.038-0.006 0.077-0.012 0.114-0.016 0.066-0.008 0.131-0.014 0.198-0.019 0.042-0.003 0.084-0.005 0.125-0.006 0.038-0 0.076-0.001 0.113-0.001zM6.020 0.128c-0.048 0-0.097 0.001-0.145 0.002-0.055 0.002-0.11 0.004-0.165 0.008-0.086 0.006-0.171 0.014-0.257 0.024-0.050 0.006-0.1 0.014-0.15 0.021-0.089 0.014-0.178 0.030-0.266 0.050-0.045 0.010-0.090 0.021-0.134 0.033-0.092 0.023-0.183 0.048-0.274 0.077-0.039 0.013-0.078 0.027-0.116 0.040-0.095 0.033-0.188 0.068-0.281 0.108-0.033 0.014-0.065 0.030-0.097 0.045-0.097 0.044-0.192 0.090-0.286 0.142-0.025 0.014-0.050 0.029-0.075 0.044-0.099 0.057-0.197 0.116-0.292 0.181-0.015 0.011-0.030 0.023-0.046 0.033-0.103 0.072-0.204 0.147-0.302 0.229v0c-0.101 0.085-0.201 0.172-0.296 0.267-3.974 3.781-4.329 12.539 5.45 22.244 5.795 5.838 11.252 8.065 15.514 8.065 2.876 0 5.207-1.014 6.731-2.615 0.095-0.095 0.183-0.195 0.267-0.296 0 0 0 0 0 0 0.081-0.097 0.156-0.198 0.228-0.3 0.011-0.016 0.024-0.031 0.034-0.047 0.065-0.095 0.123-0.192 0.18-0.29 0.015-0.026 0.031-0.051 0.045-0.077 0.051-0.093 0.097-0.189 0.141-0.285 0.015-0.033 0.031-0.065 0.046-0.098 0.040-0.092 0.074-0.185 0.107-0.28 0.014-0.039 0.028-0.078 0.041-0.118 0.029-0.090 0.054-0.181 0.077-0.273 0.012-0.045 0.023-0.090 0.033-0.136 0.019-0.088 0.035-0.176 0.049-0.265 0.008-0.051 0.015-0.101 0.022-0.152 0.011-0.085 0.018-0.17 0.024-0.255 0.003-0.055 0.006-0.111 0.008-0.166 0.002-0.082 0.003-0.163 0.001-0.245-0.001-0.059-0.005-0.119-0.008-0.178-0.005-0.078-0.011-0.156-0.020-0.234-0.007-0.063-0.017-0.126-0.027-0.189-0.012-0.074-0.024-0.147-0.039-0.22-0.014-0.066-0.031-0.132-0.048-0.198-0.018-0.069-0.035-0.138-0.057-0.206s-0.047-0.137-0.071-0.205c-0.023-0.064-0.045-0.128-0.072-0.191-0.029-0.071-0.064-0.14-0.097-0.209-0.028-0.059-0.054-0.118-0.085-0.175-0.039-0.073-0.084-0.144-0.127-0.216-0.031-0.051-0.060-0.104-0.094-0.154-0.053-0.079-0.111-0.155-0.17-0.231-0.031-0.040-0.058-0.081-0.090-0.12-0.093-0.114-0.192-0.224-0.299-0.331l-2.866-2.866c-0.106-0.106-0.217-0.205-0.331-0.299-0.039-0.032-0.080-0.059-0.12-0.090-0.077-0.058-0.152-0.117-0.232-0.17-0.050-0.033-0.102-0.062-0.154-0.093-0.072-0.044-0.143-0.088-0.216-0.127-0.057-0.031-0.116-0.057-0.175-0.085-0.070-0.033-0.139-0.067-0.21-0.097-0.063-0.026-0.128-0.048-0.192-0.072-0.068-0.025-0.135-0.050-0.204-0.071s-0.138-0.039-0.208-0.057c-0.065-0.017-0.131-0.034-0.196-0.048-0.074-0.015-0.148-0.028-0.222-0.039-0.063-0.010-0.125-0.020-0.188-0.027-0.078-0.009-0.156-0.015-0.234-0.020-0.059-0.004-0.118-0.007-0.178-0.008-0.034-0.001-0.067-0.001-0.101-0.001-0.048 0-0.097 0.001-0.145 0.002-0.055 0.002-0.11 0.004-0.165 0.008-0.086 0.006-0.171 0.014-0.257 0.024-0.050 0.006-0.1 0.014-0.15 0.021-0.089 0.014-0.178 0.030-0.266 0.050-0.045 0.010-0.090 0.021-0.134 0.033-0.092 0.023-0.183 0.048-0.274 0.077-0.039 0.013-0.078 0.027-0.116 0.040-0.095 0.033-0.188 0.068-0.281 0.108-0.033 0.014-0.065 0.030-0.097 0.045-0.097 0.044-0.192 0.090-0.286 0.142-0.025 0.014-0.050 0.029-0.075 0.044-0.099 0.057-0.197 0.116-0.292 0.181-0.015 0.011-0.030 0.023-0.046 0.033-0.103 0.072-0.204 0.147-0.302 0.229v0c-0.101 0.085-0.201 0.172-0.296 0.267l-1.939 1.939c-0.124 0.124-0.287 0.186-0.45 0.186s-0.326-0.062-0.45-0.186l-8.381-8.382c-0.248-0.248-0.248-0.651 0-0.9l1.939-1.939c0.095-0.095 0.183-0.195 0.267-0.296 0 0 0 0 0 0 0.082-0.097 0.156-0.198 0.228-0.3 0.011-0.016 0.024-0.031 0.034-0.047 0.065-0.095 0.123-0.192 0.179-0.29 0.015-0.026 0.031-0.051 0.045-0.077 0.051-0.093 0.097-0.189 0.141-0.285 0.015-0.033 0.031-0.065 0.046-0.098 0.040-0.092 0.074-0.185 0.107-0.28 0.014-0.039 0.028-0.078 0.041-0.118 0.029-0.090 0.054-0.181 0.077-0.273 0.012-0.045 0.023-0.090 0.033-0.136 0.019-0.088 0.035-0.176 0.049-0.265 0.008-0.051 0.015-0.101 0.022-0.152 0.011-0.085 0.018-0.17 0.024-0.255 0.004-0.056 0.006-0.111 0.008-0.166 0.002-0.082 0.003-0.163 0.001-0.245-0.001-0.059-0.005-0.119-0.008-0.178-0.005-0.078-0.011-0.156-0.020-0.234-0.007-0.063-0.017-0.126-0.027-0.189-0.012-0.074-0.024-0.147-0.039-0.22-0.014-0.066-0.031-0.132-0.048-0.198-0.018-0.069-0.035-0.138-0.057-0.206s-0.047-0.137-0.071-0.205c-0.023-0.064-0.045-0.128-0.072-0.191-0.030-0.071-0.064-0.14-0.097-0.209-0.028-0.059-0.054-0.118-0.085-0.175-0.039-0.073-0.084-0.144-0.127-0.216-0.031-0.051-0.060-0.104-0.094-0.154-0.053-0.079-0.111-0.155-0.17-0.231-0.031-0.040-0.058-0.082-0.090-0.12-0.093-0.114-0.193-0.224-0.299-0.331l-2.866-2.866c-0.106-0.106-0.217-0.205-0.331-0.299-0.039-0.032-0.080-0.059-0.12-0.090-0.077-0.058-0.152-0.117-0.232-0.17-0.050-0.033-0.102-0.062-0.153-0.093-0.072-0.044-0.143-0.088-0.216-0.127-0.057-0.031-0.116-0.057-0.175-0.085-0.070-0.033-0.139-0.067-0.21-0.097-0.063-0.026-0.128-0.048-0.192-0.072-0.068-0.025-0.135-0.050-0.204-0.071s-0.138-0.039-0.208-0.057c-0.065-0.017-0.131-0.034-0.196-0.048-0.074-0.015-0.148-0.028-0.222-0.039-0.063-0.010-0.125-0.020-0.188-0.027-0.078-0.009-0.156-0.015-0.234-0.020-0.059-0.004-0.118-0.007-0.178-0.008-0.033-0.001-0.067-0.001-0.1-0.001v0z"></path>
</symbol>
</defs>
</svg>
