<svg aria-hidden="true" style="position: absolute; width: 0; height: 0; overflow: hidden;" version="1.1" xmlns="http://www.w3.org/2000/svg" xmlns:xlink="http://www.w3.org/1999/xlink">
<defs>
<symbol id="icon-burger" viewBox="0 0 31 32">
<path stroke-linejoin="miter" stroke-linecap="round" stroke-miterlimit="4" stroke-width="1.4884" d="M3.907 9.488h23.814M3.907 16.186h23.814M3.907 22.884h23.814"></path>
</symbol>
<symbol id="icon-search" viewBox="0 0 31 32">
<path stroke-linejoin="round" stroke-linecap="round" stroke-miterlimit="4" stroke-width="2.7826" d="M29.217 29.913l-2.783-2.783M14.609 28.522c1.736 0 3.454-0.342 5.058-1.006s3.061-1.638 4.288-2.865c1.227-1.227 2.201-2.684 2.865-4.288s1.006-3.322 1.006-5.058c0-1.736-0.342-3.454-1.006-5.058s-1.638-3.061-2.865-4.288c-1.227-1.227-2.684-2.201-4.288-2.865s-3.322-1.006-5.058-1.006c-3.505 0-6.867 1.393-9.346 3.871s-3.871 5.841-3.871 9.346c0 3.506 1.393 6.867 3.871 9.346s5.841 3.871 9.346 3.871v0z"></path>
</symbol>
<symbol id="icon-close" viewBox="0 0 32 32">
<path fill="none" stroke="#fafafa" style="stroke: var(--color1, #fafafa)" stroke-linejoin="round" stroke-linecap="round" stroke-miterlimit="4" stroke-width="2.6667" d="M24 8l-16 16"></path>
<path fill="none" stroke="#fafafa" style="stroke: var(--color1, #fafafa)" stroke-linejoin="round" stroke-linecap="round" stroke-miterlimit="4" stroke-width="2.6667" d="M8 8l16 16"></path>
</symbol>
<symbol id="icon-down" viewBox="0 0 48 32">
<path d="M23.998 28.667c-0.531 0.002-1.040-0.209-1.413-0.587l-21.333-21.333c-0.734-0.788-0.713-2.016 0.049-2.778s1.99-0.783 2.778-0.049l19.92 19.92 19.92-19.92c0.788-0.734 2.016-0.713 2.778 0.049s0.783 1.99 0.049 2.778l-21.333 21.333c-0.373 0.378-0.883 0.589-1.413 0.587z"></path>
</symbol>
<symbol id="icon-check" viewBox="0 0 57 32">
<path fill="#a93b59" style="fill: var(--color1, #a93b59)" d="M55.819 1.708l-0.875-0.875c-0.625-0.625-1.5-0.625-2.125 0l-24.375 24.375-24.5-24.375c-0.625-0.625-1.5-0.625-2.125 0l-0.875 0.875c-0.625 0.625-0.625 1.5 0 2.125l26.375 26.375c0.625 0.625 1.5 0.625 2.125 0l26.375-26.375c0.625-0.625 0.625-1.5 0-2.125z"></path>
</symbol>
<symbol id="icon-new" viewBox="0 0 34 32">
<path fill="#fff" style="fill: var(--color1, #fff)" d="M4.286 6.143h-4.286c0 8.304 6.696 15 15 15v9.643c0 0.602 0.469 1.071 1.071 1.071h2.143c0.536 0 1.071-0.469 1.071-1.071v-9.643c0-8.237-6.763-15-15-15zM30 1.857c-5.692 0-10.58 3.147-13.125 7.768 1.875 2.009 3.214 4.487 3.951 7.165 7.567-0.737 13.46-7.165 13.46-14.933h-4.286z"></path>
</symbol>
<symbol id="icon-water" viewBox="0 0 22 32">
<path fill="#fff" style="fill: var(--color1, #fff)" d="M12.012 3.098c-0.469-1.699-2.93-1.816-3.457 0-2.695 9.199-8.555 11.719-8.555 18.223 0 5.801 4.57 10.43 10.313 10.43 5.684 0 10.313-4.629 10.313-10.43 0-6.504-5.859-8.965-8.613-18.223zM10.313 28c-3.633 0-6.563-2.93-6.563-6.562 0-0.469 0.41-0.938 0.938-0.938 0.469 0 0.938 0.469 0.938 0.938 0 2.637 2.051 4.687 4.688 4.687 0.469 0 0.938 0.469 0.938 0.937 0 0.527-0.469 0.938-0.938 0.938z"></path>
</symbol>
<symbol id="icon-name" viewBox="0 0 32 32">
<path fill="#6f6567" style="fill: var(--color1, #6f6567)" d="M16 14.519c1.356 0 2.682-0.348 3.81-0.999s2.007-1.577 2.525-2.659c0.519-1.083 0.655-2.274 0.39-3.424s-0.918-2.205-1.877-3.034c-0.959-0.829-2.181-1.393-3.511-1.622s-2.709-0.111-3.962 0.337c-1.253 0.449-2.324 1.208-3.077 2.183s-1.156 2.12-1.156 3.292c0 1.572 0.722 3.079 2.008 4.19s3.030 1.736 4.849 1.736z"></path>
<path fill="#6f6567" style="fill: var(--color1, #6f6567)" d="M26.286 29.333c0.455 0 0.891-0.156 1.212-0.434s0.502-0.655 0.502-1.048c0-2.75-1.264-5.388-3.515-7.333s-5.303-3.037-8.485-3.037c-3.183 0-6.235 1.093-8.485 3.037s-3.515 4.583-3.515 7.333c0 0.393 0.181 0.77 0.502 1.048s0.758 0.434 1.212 0.434h20.571z"></path>
</symbol>
<symbol id="icon-phone" viewBox="0 0 32 32">
<path fill="#827679" style="fill: var(--color2, #827679)" d="M24.591 32c-6.519-0.009-12.769-2.607-17.379-7.226s-7.203-10.881-7.212-17.414c0-1.952 0.774-3.824 2.151-5.204s3.246-2.156 5.194-2.156c0.413-0.003 0.824 0.034 1.23 0.112 0.392 0.058 0.777 0.155 1.15 0.288 0.262 0.092 0.496 0.251 0.678 0.462s0.306 0.465 0.36 0.738l2.188 9.6c0.059 0.261 0.052 0.532-0.021 0.789s-0.208 0.492-0.395 0.683c-0.208 0.224-0.224 0.24-2.188 1.264 1.573 3.457 4.332 6.234 7.776 7.824 1.038-1.984 1.054-2 1.277-2.208 0.191-0.187 0.425-0.323 0.682-0.395s0.527-0.080 0.787-0.021l9.581 2.192c0.264 0.061 0.508 0.189 0.709 0.371s0.353 0.412 0.441 0.669c0.135 0.38 0.236 0.771 0.303 1.168 0.064 0.402 0.096 0.809 0.096 1.216-0.029 1.944-0.825 3.797-2.213 5.155s-3.256 2.11-5.196 2.093z"></path>
</symbol>
<symbol id="icon-ok" viewBox="0 0 43 32">
<path d="M15.898 32c-0.348-0.001-0.692-0.074-1.011-0.214s-0.606-0.344-0.842-0.599l-12.343-13.13c-0.461-0.492-0.709-1.146-0.687-1.82s0.31-1.312 0.801-1.773 1.147-0.709 1.821-0.687c0.674 0.021 1.312 0.31 1.773 0.801l10.464 11.149 21.359-23.365c0.217-0.27 0.486-0.493 0.792-0.655s0.642-0.26 0.987-0.287c0.345-0.027 0.692 0.016 1.020 0.128s0.629 0.289 0.886 0.521 0.463 0.515 0.606 0.83c0.144 0.315 0.221 0.656 0.228 1.002s-0.057 0.69-0.188 1.010c-0.131 0.321-0.326 0.611-0.573 0.853l-23.213 25.397c-0.235 0.26-0.52 0.469-0.839 0.613s-0.664 0.221-1.015 0.225h-0.025z"></path>
</symbol>
<symbol id="icon-close" viewBox="0 0 32 32">
<path stroke-linejoin="miter" stroke-linecap="butt" stroke-miterlimit="4" stroke-width="2.4615" d="M1.231 16c0-8.157 6.612-14.769 14.769-14.769v0c8.157 0 14.769 6.612 14.769 14.769v0c0 8.157-6.612 14.769-14.769 14.769v0c-8.157 0-14.769-6.612-14.769-14.769v0z"></path>
<path stroke-linejoin="round" stroke-linecap="round" stroke-miterlimit="4" stroke-width="2.4615" d="M6.154 6.154l19.692 19.692"></path>
<path stroke-linejoin="round" stroke-linecap="round" stroke-miterlimit="4" stroke-width="2.4615" d="M6.154 25.846l19.692-19.692"></path>
</symbol>
<symbol id="icon-mc" viewBox="0 0 32 32">
<path fill="none" stroke="#a93b59" style="stroke: var(--color1, #a93b59)" stroke-linejoin="miter" stroke-linecap="butt" stroke-miterlimit="4" stroke-width="2.4615" d="M1.231 16c0-8.157 6.612-14.769 14.769-14.769v0c8.157 0 14.769 6.612 14.769 14.769v0c0 8.157-6.612 14.769-14.769 14.769v0c-8.157 0-14.769-6.612-14.769-14.769v0z"></path>
<path fill="none" stroke="#a93b59" style="stroke: var(--color1, #a93b59)" stroke-linejoin="round" stroke-linecap="round" stroke-miterlimit="4" stroke-width="2.4615" d="M6.154 6.154l19.692 19.692"></path>
<path fill="none" stroke="#a93b59" style="stroke: var(--color1, #a93b59)" stroke-linejoin="round" stroke-linecap="round" stroke-miterlimit="4" stroke-width="2.4615" d="M6.154 25.846l19.692-19.692"></path>
</symbol>
</defs>
</svg>
