<svg aria-hidden="true" style="position: absolute; width: 0; height: 0; overflow: hidden;" version="1.1" xmlns="http://www.w3.org/2000/svg" xmlns:xlink="http://www.w3.org/1999/xlink">
<defs>
<symbol id="icon-burger" viewBox="0 0 31 32">
<path stroke-linejoin="miter" stroke-linecap="round" stroke-miterlimit="4" stroke-width="1.4884" d="M3.907 9.488h23.814M3.907 16.186h23.814M3.907 22.884h23.814"></path>
</symbol>
<symbol id="icon-search" viewBox="0 0 31 32">
<path stroke-linejoin="round" stroke-linecap="round" stroke-miterlimit="4" stroke-width="2.7826" d="M29.217 29.913l-2.783-2.783M14.609 28.522c1.736 0 3.454-0.342 5.058-1.006s3.061-1.638 4.288-2.865c1.227-1.227 2.201-2.684 2.865-4.288s1.006-3.322 1.006-5.058c0-1.736-0.342-3.454-1.006-5.058s-1.638-3.061-2.865-4.288c-1.227-1.227-2.684-2.201-4.288-2.865s-3.322-1.006-5.058-1.006c-3.505 0-6.867 1.393-9.346 3.871s-3.871 5.841-3.871 9.346c0 3.506 1.393 6.867 3.871 9.346s5.841 3.871 9.346 3.871v0z"></path>
</symbol>
<symbol id="icon-close" viewBox="0 0 32 32">
<path fill="none" stroke="#fafafa" style="stroke: var(--color1, #fafafa)" stroke-linejoin="round" stroke-linecap="round" stroke-miterlimit="4" stroke-width="2.6667" d="M24 8l-16 16"></path>
<path fill="none" stroke="#fafafa" style="stroke: var(--color1, #fafafa)" stroke-linejoin="round" stroke-linecap="round" stroke-miterlimit="4" stroke-width="2.6667" d="M8 8l16 16"></path>
</symbol>
<symbol id="icon-down" viewBox="0 0 48 32">
<path d="M23.998 28.667c-0.531 0.002-1.040-0.209-1.413-0.587l-21.333-21.333c-0.734-0.788-0.713-2.016 0.049-2.778s1.99-0.783 2.778-0.049l19.92 19.92 19.92-19.92c0.788-0.734 2.016-0.713 2.778 0.049s0.783 1.99 0.049 2.778l-21.333 21.333c-0.373 0.378-0.883 0.589-1.413 0.587z"></path>
</symbol>
<symbol id="icon-check" viewBox="0 0 57 32">
<path fill="#a93b59" style="fill: var(--color1, #a93b59)" d="M55.819 1.708l-0.875-0.875c-0.625-0.625-1.5-0.625-2.125 0l-24.375 24.375-24.5-24.375c-0.625-0.625-1.5-0.625-2.125 0l-0.875 0.875c-0.625 0.625-0.625 1.5 0 2.125l26.375 26.375c0.625 0.625 1.5 0.625 2.125 0l26.375-26.375c0.625-0.625 0.625-1.5 0-2.125z"></path>
</symbol>
</defs>
</svg>
